# xmcd
#
# Track frame offsets:
# 150
# 24294
# 48134
# 69672
# 91016
# 113522
# 140284
# 160138
# 184949
# 205813
# 225460
# 247435
# 275991
#
# Disc length: 4427 seconds
#
# Revision: 1
# Processed by: cddbd v1.5.1PL0 Copyright (c) Steve Scherf et al.
# Submitted via: CedeCatalogueitor 2.6.0.6 http://personales.ya.com/cdcatalogueitor
#
DISCID=af11490d
DTITLE=Carlos Santana - Supernatural
DYEAR=2001
DGENRE=
TTITLE0=Da Le Taleo
TTITLE1=Love Of My Life
TTITLE2=Put Your Lights On
TTITLE3=Africa Bamba
TTITLE4=Smooth
TTITLE5=Do You Like The Way
TTITLE6=Maria Maria
TTITLE7=Migra
TTITLE8=Corazon Espinado
TTITLE9=Wishing It Was
TTITLE10=El Farol
TTITLE11=Primavera
TTITLE12=The Calling
EXTD=
EXTT0=
EXTT1=
EXTT2=
EXTT3=
EXTT4=
EXTT5=
EXTT6=
EXTT7=
EXTT8=
EXTT9=
EXTT10=
EXTT11=
EXTT12=
PLAYORDER=
